<?xml version="1.0" standalone="no"?><!DOCTYPE svg PUBLIC "-//W3C//DTD SVG 1.1//EN" "http://www.w3.org/Graphics/SVG/1.1/DTD/svg11.dtd"><svg t="1522061650275" class="icon" style="" viewBox="0 0 1024 1024" version="1.1" xmlns="http://www.w3.org/2000/svg" p-id="1664" xmlns:xlink="http://www.w3.org/1999/xlink" width="128" height="128"><defs><style type="text/css"></style></defs><path d="M518.293333 172.245333c-9.642667 9.642667-9.962667 24.576-1.792 35.072L117.696 606.08a406.848 406.848 0 0 1-10.602667-112.618667l161.514667-161.514666a42.666667 42.666667 0 0 0 51.584-6.677334 42.666667 42.666667 0 0 0 6.677333-51.584l166.613334-166.613333c37.76-1.706667 75.648 1.813333 112.64 10.602667l-52.757334 52.736c-10.496-8.149333-25.429333-7.850667-35.072 1.813333zM354.090667 863.573333a43.349333 43.349333 0 0 0 6.762666-52.373333L862.912 309.12a403.712 403.712 0 0 1 37.504 85.717333l-82.304 82.325334a60.565333 60.565333 0 0 0-80.298667 4.586666 60.522667 60.522667 0 0 0-4.586666 80.277334L394.88 900.416a391.573333 391.573333 0 0 1-62.592-25.088c7.978667-1.664 15.637333-5.546667 21.824-11.733333z m469.632-295.893333a60.544 60.544 0 0 0 4.245333-80.725333l76.437333-76.437334c9.301333 36.16 13.653333 73.258667 12.842667 110.378667L655.104 783.04c-10.410667-7.488-24.832-7.04-34.218667 2.346667-9.344 9.386667-9.834667 23.765333-2.346666 34.218666l-97.664 97.664a407.338667 407.338667 0 0 1-110.378667-12.842666l332.501333-332.522667a60.544 60.544 0 0 0 80.725334-4.224z m-564.053334-302.933333a42.666667 42.666667 0 0 0-1.792 58.346666l-149.802666 149.76a404.138667 404.138667 0 0 1 116.949333-247.829333 404.053333 404.053333 0 0 1 247.850667-116.928l-154.88 154.88a42.666667 42.666667 0 0 0-58.325334 1.770667z m-10.176 299.52a42.112 42.112 0 0 0-3.072 56l-88.810666 88.789333a403.349333 403.349333 0 0 1-36.053334-87.168l405.952-405.930667a26.666667 26.666667 0 0 0 34.496-34.517333l59.861334-59.882667c16.021333 4.48 31.786667 10.090667 47.210666 16.597334-2.666667 1.706667-5.226667 3.648-7.552 5.973333A43.434667 43.434667 0 0 0 661.333333 205.376l-355.84 355.84a42.112 42.112 0 0 0-56 3.072z m409.173334 258.901333c8.021333-8 9.749333-19.754667 5.461333-29.546667L916.266667 541.504c-6.805333 93.781333-45.717333 185.642667-117.418667 257.322667-71.68 71.701333-163.562667 110.613333-257.322667 117.44l87.637334-87.637334c9.770667 4.266667 21.525333 2.56 29.525333-5.461333z m-140.373334-424.042667a70.4 70.4 0 0 0-3.477333 95.594667L218.24 791.317333a408.256 408.256 0 0 1-53.333333-69.909333l91.754666-91.733333a42.154667 42.154667 0 0 0 58.261334-58.261334l357.909333-357.909333a43.285333 43.285333 0 0 0 62.826667-39.466667 404.096 404.096 0 0 1 55.68 44.202667l-177.408 177.408a70.4 70.4 0 0 0-95.594667 3.477333z m105.194667 6.549334l177.856-177.834667a405.205333 405.205333 0 0 1 54.272 68.970667L352 800.426667a43.349333 43.349333 0 0 0-59.370667 1.706666 43.264 43.264 0 0 0-10.538666 43.733334 400.981333 400.981333 0 0 1-54.272-44.501334L524.864 504.32a70.336 70.336 0 0 0 93.269333-5.354667 70.336 70.336 0 0 0 5.354667-93.290666z" fill="#00C1DE" p-id="1665"></path></svg>